<?xml version="1.0" encoding="UTF-8"?>
<svg id="Layer_1" data-name="Layer 1" xmlns="http://www.w3.org/2000/svg" viewBox="0 0 2000 2000">
  <defs>
    <style>
      .cls-1 {
        fill: #f4ddc3;
      }
    </style>
  </defs>
  <g>
    <path class="cls-1" d="M296.74,1224.74l8.97-8.97c13.46,15.85,30.8,23.32,53.82,23.32,34.68,0,51.73-17.04,51.73-41.86,0-29.9-24.52-36.18-52.33-43.65-27.81-7.47-57.41-17.34-57.41-55.02,0-31.99,20.93-51.43,59.2-51.43,19.43,0,36.78,5.08,52.33,17.64l-7.48,10.17c-13.46-11.36-28.41-15.85-45.45-15.85-31.69,0-46.05,15.55-46.05,39.77,0,29,21.23,35.28,48.74,43.06,29.9,8.37,61,17.04,61,55.31,0,31.1-21.83,53.82-63.99,53.82-25.71,0-47.24-8.37-63.09-26.31Z"/>
    <path class="cls-1" d="M474.95,1184.07v63.39h-12.56v-196.74h12.56v115.12l104.95-115.12h16.44l-68.47,75.05,71.76,121.69h-14.65l-65.78-111.83-44.25,48.44Z"/>
    <path class="cls-1" d="M733.89,1050.72h14.05l-61.59,119.3v77.44h-12.56v-77.44l-61.59-119.3h14.05l53.82,104.95,53.82-104.95Z"/>
    <path class="cls-1" d="M764.09,1224.74l8.97-8.97c13.46,15.85,30.8,23.32,53.82,23.32,34.68,0,51.73-17.04,51.73-41.86,0-29.9-24.52-36.18-52.33-43.65-27.81-7.47-57.41-17.34-57.41-55.02,0-31.99,20.93-51.43,59.2-51.43,19.43,0,36.78,5.08,52.33,17.64l-7.48,10.17c-13.46-11.36-28.41-15.85-45.45-15.85-31.69,0-46.05,15.55-46.05,39.77,0,29,21.23,35.28,48.74,43.06,29.9,8.37,61,17.04,61,55.31,0,31.1-21.83,53.82-63.99,53.82-25.71,0-47.24-8.37-63.09-26.31Z"/>
    <path class="cls-1" d="M1044.85,1235.5v11.96h-115.12v-196.74h113.32v11.96h-100.76v76.54h69.07v11.96h-69.07v84.32h102.56Z"/>
    <path class="cls-1" d="M1099.57,1190.35l-20.93,57.11h-13.45l72.66-196.74h10.76l72.66,196.74h-13.46l-20.93-57.11h-87.31ZM1143.22,1071.95l-39.17,106.44h78.34l-39.17-106.44Z"/>
    <path class="cls-1" d="M1265.51,1184.07v63.39h-12.56v-196.74h12.56v115.12l104.95-115.12h16.44l-68.47,75.05,71.76,121.69h-14.65l-65.78-111.83-44.25,48.44Z"/>
    <path class="cls-1" d="M1535.52,1235.5v11.96h-115.12v-196.74h113.32v11.96h-100.76v76.54h69.07v11.96h-69.07v84.32h102.56Z"/>
    <path class="cls-1" d="M1585.15,1247.46h-12.56v-196.74h66.68c38.87,0,61.59,22.72,61.59,55.02,0,26.31-14.95,47.54-46.05,53.52l48.44,88.21h-14.35l-47.54-86.71h-56.21v86.71ZM1639.27,1148.79c31.99,0,49.04-17.04,49.04-43.06s-16.74-43.06-49.04-43.06h-54.12v86.11h54.12Z"/>
  </g>
  <g>
    <g>
      <path class="cls-1" d="M859.31,1369.94c0,17.29,9.09,31.81,24.6,31.81,14.23,0,22.23-12.15,22.23-23.91v-4.54h-17.58v-1.88h19.56v6.52c0,12.74-8.69,25.68-24.2,25.68-16.79,0-26.57-15.41-26.57-33.69s9.78-33.69,26.57-33.69c7.9,0,14.23,3.46,18.57,8.69l-1.48,1.28c-4.15-4.94-9.78-8.1-17.09-8.1-15.51,0-24.6,14.52-24.6,31.81Z"/>
      <path class="cls-1" d="M924.9,1402.44h-1.98v-65h21.54c12.84,0,19.86,7.51,19.86,17.68,0,9.19-5.53,16.1-16.2,17.48l16.69,29.83h-2.27l-16.6-29.64h-21.04v29.64ZM944.46,1370.93c11.66,0,17.88-6.52,17.88-15.81s-6.03-15.81-17.88-15.81h-19.56v31.61h19.56Z"/>
      <path class="cls-1" d="M974.3,1369.94c0-18.28,9.78-33.69,26.57-33.69s26.57,15.41,26.57,33.69-9.78,33.69-26.57,33.69-26.57-15.41-26.57-33.69ZM1025.48,1369.94c0-17.29-9.09-31.81-24.6-31.81s-24.6,14.52-24.6,31.81,9.09,31.81,24.6,31.81,24.6-14.52,24.6-31.81Z"/>
      <path class="cls-1" d="M1040.79,1379.23v-41.79h1.98v41.79c0,14.82,8.3,22.52,20.15,22.52s20.15-7.71,20.15-22.52v-41.79h1.98v41.79c0,16.1-9.09,24.4-22.13,24.4s-22.13-8.3-22.13-24.4Z"/>
      <path class="cls-1" d="M1103.33,1402.44h-1.98v-65h20.84c13.04,0,20.55,7.51,20.55,18.37s-7.51,18.37-20.55,18.37h-18.87v28.25ZM1122.1,1372.31c12.45,0,18.67-6.91,18.67-16.5s-6.22-16.5-18.67-16.5h-18.77v32.99h18.77Z"/>
    </g>
    <rect class="cls-1" x="296.74" y="1364.65" width="508.1" height="1.98"/>
    <rect class="cls-1" x="1195.16" y="1364.65" width="508.1" height="1.98"/>
  </g>
  <path class="cls-1" d="M911.21,877.08l-581.12-8.05c-9.82-.16-18.79-5.63-23.41-14.3l-26.29-51.74c-1.11-2.08-4.25-.61-3.37,1.58l22.09,53.81c3.93,9.67,13.06,16.21,23.48,16.81l614.94,29.99-26.32-28.1Z"/>
  <path class="cls-1" d="M1088.79,877.08l581.12-8.05c9.82-.16,18.79-5.63,23.41-14.3l26.29-51.74c1.11-2.08,4.25-.61,3.37,1.58l-22.09,53.81c-3.93,9.67-13.06,16.21-23.48,16.81l-614.94,29.99,26.32-28.1Z"/>
  <g>
    <path class="cls-1" d="M1001.93,772.92c-4.36,0-11.6-6.45-11.67-15.16l2.99-148.86c.08-2.09.74-4.11,1.92-5.83l2.65-3.88c2.51-3.67,4.52-3.78,7.18-.21l2.39,2.87c1.56,1.87,2.46,4.2,2.56,6.63l3.63,149.23c0,7.14-7.71,15.22-11.67,15.22Z"/>
    <polygon class="cls-1" points="741.31 626.17 991.25 613.85 1012.94 613.85 1258.69 626.17 1258.69 631.35 741.31 631.35 741.31 626.17"/>
  </g>
  <path class="cls-1" d="M1298.11,700.09c-107.05,26.67-295.83,217.92-298.11,220.18-2.29-2.27-182.78-196.75-298.11-220.18,0,0,189.42,96.7,298.09,268.9v.08s.02-.03.03-.04c0,.01.02.03.03.04v-.08c108.66-172.2,298.09-268.9,298.09-268.9Z"/>
</svg>